<svg width="367.86845703125px" height="122px" xmlns="http://www.w3.org/2000/svg" viewBox="66.065771484375 14 367.86845703125 122" style="background: rgba(0, 0, 0, 0);" preserveAspectRatio="xMidYMid"><defs><filter id="editing-extrusion" x="-100%" y="-100%" width="300%" height="300%"><feFlood result="color1" flood-color="#444"></feFlood><feConvolveMatrix order="8,8" divisor="1" kernelMatrix="1 0 0 0 0 0 0 0 0 1 0 0 0 0 0 0 0 0 1 0 0 0 0 0 0 0 0 1 0 0 0 0 0 0 0 0 1 0 0 0 0 0 0 0 0 1 0 0 0 0 0 0 0 0 1 0 0 0 0 0 0 0 0 1" in="SourceAlpha" result="extrude"></feConvolveMatrix><feComposite in="color1" in2="extrude" result="comp-extrude" operator="in"></feComposite><feOffset dx="4" dy="4" in="comp-extrude" result="offset-extrude"></feOffset><feMerge><feMergeNode in="offset-extrude"></feMergeNode><feMergeNode in="SourceGraphic"></feMergeNode></feMerge></filter></defs><g filter="url(#editing-extrusion)"><g transform="translate(123.69068631529808, 99.00000190734863)"><path d="M30.21-33.92L30.21-33.92L30.21-33.92Q25.02-33.92 21.25-35.65L21.25-35.65L19.20-25.28L31.55-25.28L31.55-25.28Q31.55-21.89 29.86-19.74L29.86-19.74L29.86-19.74Q28.16-17.60 25.09-17.60L25.09-17.60L25.09-17.60Q21.76-17.60 18.69-18.82L18.69-18.82L18.69-18.82Q18.05-19.07 17.98-19.14L17.98-19.14L14.34 0L0.38 0L8.51-42.24L37.06-42.24L37.06-42.24Q37.06-38.34 35.23-36.13L35.23-36.13L35.23-36.13Q33.41-33.92 30.21-33.92ZM50.82-3.52L50.82-3.52L50.82-3.52Q48.83 1.28 42.50 1.28L42.50 1.28L42.50 1.28Q39.23 1.28 37.18-0.96L37.18-0.96L37.18-0.96Q35.46-2.94 35.46-4.93L35.46-4.93L35.46-4.93Q35.46-10.11 37.82-20.22L37.82-20.22L40.19-32.64L53.18-33.92L49.28-13.70L49.28-13.70Q48.19-8.96 48.19-7.30L48.19-7.30L48.19-7.30Q48.19-3.65 50.82-3.52ZM41.34-41.54L41.34-41.54L41.34-41.54Q41.34-44.03 43.42-45.38L43.42-45.38L43.42-45.38Q45.50-46.72 48.51-46.72L48.51-46.72L48.51-46.72Q51.52-46.72 53.34-45.38L53.34-45.38L53.34-45.38Q55.17-44.03 55.17-41.54L55.17-41.54L55.17-41.54Q55.17-39.04 53.15-37.76L53.15-37.76L53.15-37.76Q51.14-36.48 48.13-36.48L48.13-36.48L48.13-36.48Q45.12-36.48 43.23-37.76L43.23-37.76L43.23-37.76Q41.34-39.04 41.34-41.54ZM75.39-22.46L75.39-22.46L75.39-22.46Q76.29-24.83 76.29-26.88L76.29-26.88L76.29-26.88Q76.29-30.66 73.22-30.66L73.22-30.66L73.22-30.66Q71.62-30.66 70.30-29.22L70.30-29.22L70.30-29.22Q68.99-27.78 68.99-25.98L68.99-25.98L68.99-25.98Q68.99-24.70 70.02-23.68L70.02-23.68L70.02-23.68Q71.49-22.27 75.26-19.97L75.26-19.97L75.26-19.97Q79.04-17.66 80.48-15.78L80.48-15.78L80.48-15.78Q81.92-13.89 81.92-11.30L81.92-11.30L81.92-11.30Q81.92-8.70 80.67-6.34L80.67-6.34L80.67-6.34Q79.42-3.97 77.18-2.30L77.18-2.30L77.18-2.30Q72.38 1.28 64.70 1.28L64.70 1.28L64.70 1.28Q60.54 1.28 57.34-0.90L57.34-0.90L57.34-0.90Q54.14-3.01 54.14-5.50L54.14-5.50L54.14-5.50Q54.14-8 55.97-9.47L55.97-9.47L55.97-9.47Q57.79-10.94 60.48-10.94L60.48-10.94L60.48-10.94Q63.17-10.94 64.83-9.92L64.83-9.92L64.83-9.92Q64-7.81 64-6.40L64-6.40L64-6.40Q64-2.18 67.58-2.18L67.58-2.18L67.58-2.18Q69.12-2.18 70.14-3.14L70.14-3.14L70.14-3.14Q71.17-4.10 71.17-5.76L71.17-5.76L71.17-5.76Q71.17-9.02 65.66-12.48L65.66-12.48L65.66-12.48Q61.18-15.42 60.16-16.58L60.16-16.58L60.16-16.58Q58.43-18.62 58.43-21.18L58.43-21.18L58.43-21.18Q58.43-23.74 59.65-26.18L59.65-26.18L59.65-26.18Q60.86-28.61 63.10-30.34L63.10-30.34L63.10-30.34Q67.78-33.92 75.90-33.92L75.90-33.92L75.90-33.92Q80.06-33.92 82.53-32.26L82.53-32.26L82.53-32.26Q84.99-30.59 84.99-27.78L84.99-27.78L84.99-27.78Q84.99-24.96 83.30-23.36L83.30-23.36L83.30-23.36Q81.60-21.76 78.53-21.76L78.53-21.76L78.53-21.76Q76.42-21.76 75.39-22.46ZM88.38-6.40L88.38-6.40L88.38-6.40Q88.38-8.13 89.28-12.48L89.28-12.48L92.67-29.76L88.90-29.76L89.15-31.68L89.15-31.68Q96.83-33.98 104.26-39.62L104.26-39.62L107.33-39.62L105.79-32.64L110.78-32.64L110.21-29.76L105.28-29.76L102.02-12.48L102.02-12.48Q101.18-8.51 101.18-7.17L101.18-7.17L101.18-7.17Q101.18-4.10 103.87-3.46L103.87-3.46L103.87-3.46Q103.23-1.28 100.93 0L100.93 0L100.93 0Q98.62 1.28 95.36 1.28L95.36 1.28L95.36 1.28Q92.10 1.28 90.24-0.77L90.24-0.77L90.24-0.77Q88.38-2.82 88.38-6.40ZM143.87-13.25L143.87-13.25L143.87-13.25Q145.54-12.03 145.54-9.44L145.54-9.44L145.54-9.44Q145.54-6.85 144.42-5.02L144.42-5.02L144.42-5.02Q143.30-3.20 141.12-1.79L141.12-1.79L141.12-1.79Q136.45 1.22 128.29 1.22L128.29 1.22L128.29 1.22Q120.13 1.22 115.68-3.04L115.68-3.04L115.68-3.04Q111.23-7.30 111.23-14.85L111.23-14.85L111.23-14.85Q111.23-25.54 116.80-33.66L116.80-33.66L116.80-33.66Q121.02-39.68 128.58-42.24L128.58-42.24L128.58-42.24Q132.48-43.52 136.32-43.52L136.32-43.52L136.32-43.52Q140.16-43.52 142.53-43.01L142.53-43.01L142.53-43.01Q144.90-42.50 146.69-41.47L146.69-41.47L146.69-41.47Q150.59-39.23 150.59-35.65L150.59-35.65L150.59-35.65Q150.59-32.38 147.52-29.95L147.52-29.95L147.52-29.95Q144.70-27.78 142.40-27.78L142.40-27.78L142.40-27.78Q140.10-27.78 139.14-28.10L139.14-28.10L139.14-28.10Q139.39-30.40 139.39-31.90L139.39-31.90L139.39-31.90Q139.39-33.41 139.33-34.50L139.33-34.50L139.33-34.50Q139.26-35.58 138.94-36.61L138.94-36.61L138.94-36.61Q138.30-38.98 136.35-38.98L136.35-38.98L136.35-38.98Q134.40-38.98 132.45-37.15L132.45-37.15L132.45-37.15Q130.50-35.33 128.83-32.26L128.83-32.26L128.83-32.26Q125.06-25.28 125.06-17.02L125.06-17.02L125.06-17.02Q125.06-13.06 127.30-10.78L127.30-10.78L127.30-10.78Q129.54-8.51 134.34-8.51L134.34-8.51L134.34-8.51Q137.92-8.51 141.31-10.88L141.31-10.88L141.31-10.88Q142.78-11.90 143.87-13.25ZM183.04-7.10L183.04-7.10L183.04-7.10Q183.04-4.29 185.92-3.46L185.92-3.46L185.92-3.46Q185.22-1.09 182.46 0.19L182.46 0.19L182.46 0.19Q180.16 1.28 177.63 1.28L177.63 1.28L177.63 1.28Q175.10 1.28 173.79 0.61L173.79 0.61L173.79 0.61Q172.48-0.06 171.78-1.15L171.78-1.15L171.78-1.15Q170.62-2.82 170.62-5.95L170.62-5.95L170.62-5.95Q170.62-7.81 171.65-12.93L171.65-12.93L172.54-17.79L172.54-17.79Q173.63-23.36 173.63-25.41L173.63-25.41L173.63-25.41Q173.63-28.99 171.65-28.99L171.65-28.99L171.65-28.99Q169.15-28.99 167.55-25.34L167.55-25.34L167.55-25.34Q166.91-23.94 166.46-21.82L166.46-21.82L162.11 0L149.25 1.28L158.27-44.80L171.14-46.08L170.62-43.52L170.62-43.52Q168.83-33.66 167.30-30.34L167.30-30.34L167.30-30.34Q170.88-33.92 177.47-33.92L177.47-33.92L177.47-33.92Q184.45-33.92 185.73-29.31L185.73-29.31L185.73-29.31Q186.18-27.84 186.18-26.56L186.18-26.56L186.18-26.56Q186.18-25.28 186.08-24.29L186.08-24.29L186.08-24.29Q185.98-23.30 185.66-21.50L185.66-21.50L184.83-16.90L183.36-9.66L183.36-9.66Q183.04-8.19 183.04-7.10ZM193.89-1.92L193.89-1.92L193.89-1.92Q192.38-3.58 191.71-6.21L191.71-6.21L191.71-6.21Q191.04-8.83 191.04-13.12L191.04-13.12L191.04-13.12Q191.04-17.41 192.51-21.31L192.51-21.31L192.51-21.31Q193.98-25.22 196.67-28.03L196.67-28.03L196.67-28.03Q202.18-33.92 211.26-33.92L211.26-33.92L211.26-33.92Q214.53-33.92 216.90-32.83L216.90-32.83L227.84-33.92L223.10-8.96L223.10-8.96Q222.91-8.19 222.91-6.78L222.91-6.78L222.91-6.78Q222.91-5.38 223.78-4.48L223.78-4.48L223.78-4.48Q224.64-3.58 225.92-3.46L225.92-3.46L225.92-3.46Q225.28-1.28 222.94 0L222.94 0L222.94 0Q220.61 1.28 217.98 1.28L217.98 1.28L217.98 1.28Q215.36 1.28 213.60 0.29L213.60 0.29L213.60 0.29Q211.84-0.70 211.33-2.37L211.33-2.37L211.33-2.37Q210.30-0.77 208.13 0.26L208.13 0.26L208.13 0.26Q205.95 1.28 203.04 1.28L203.04 1.28L203.04 1.28Q200.13 1.28 197.76 0.51L197.76 0.51L197.76 0.51Q195.39-0.26 193.89-1.92ZM207.39-27.90L207.39-27.90L207.39-27.90Q206.66-26.75 206.02-24.80L206.02-24.80L206.02-24.80Q205.38-22.85 204.32-17.63L204.32-17.63L204.32-17.63Q203.26-12.42 203.26-8.70L203.26-8.70L203.26-8.70Q203.26-4.99 203.84-3.90L203.84-3.90L203.84-3.90Q204.42-2.82 205.44-2.82L205.44-2.82L205.44-2.82Q207.49-2.82 208.99-4.77L208.99-4.77L208.99-4.77Q210.50-6.72 211.07-10.18L211.07-10.18L214.46-28.93L214.46-28.93Q213.12-30.08 211.55-30.08L211.55-30.08L211.55-30.08Q209.98-30.08 209.06-29.57L209.06-29.57L209.06-29.57Q208.13-29.06 207.39-27.90ZM232.32-6.40L232.32-6.40L232.32-6.40Q232.32-8.13 233.22-12.48L233.22-12.48L236.61-29.76L232.83-29.76L233.09-31.68L233.09-31.68Q240.77-33.98 248.19-39.62L248.19-39.62L251.26-39.62L249.73-32.64L254.72-32.64L254.14-29.76L249.22-29.76L245.95-12.48L245.95-12.48Q245.12-8.51 245.12-7.17L245.12-7.17L245.12-7.17Q245.12-4.10 247.81-3.46L247.81-3.46L247.81-3.46Q247.17-1.28 244.86 0L244.86 0L244.86 0Q242.56 1.28 239.30 1.28L239.30 1.28L239.30 1.28Q236.03 1.28 234.18-0.77L234.18-0.77L234.18-0.77Q232.32-2.82 232.32-6.40Z" fill="#ccc"></path></g></g><style>text {
  font-size: 64px;
  font-family: Arial Black;
  dominant-baseline: central;
  text-anchor: middle;
}</style></svg>