<svg width="413.21416015625px" height="122px" xmlns="http://www.w3.org/2000/svg" viewBox="43.392919921875006 14 413.21416015625 122" style="background: rgba(0, 0, 0, 0);" preserveAspectRatio="xMidYMid"><defs><linearGradient id="editing-rainbow-gradient" x1="0" x2="1" y1="0.5" y2="0.5" gradientUnits="objectBoundingBox"><stop offset="0.00" stop-color="#f00"></stop><stop offset="0.17" stop-color="#f90"></stop><stop offset="0.34" stop-color="#ff4"></stop><stop offset="0.51" stop-color="#9f0"></stop><stop offset="0.68" stop-color="#09f"></stop><stop offset="0.85" stop-color="#00f"></stop><stop offset="1.00" stop-color="#90f"></stop></linearGradient><filter id="editing-rainbow" x="-100%" y="-100%" width="300%" height="300%"><feMorphology operator="dilate" radius="1,2" in="SourceGraphic" result="dilate"></feMorphology><feColorMatrix in="dilate" result="color" type="matrix" values="0.7 0 0 0 0  0 0.7 0 0 0  0 0 0.7 0 0  0 0 0 1 0"></feColorMatrix><feOffset dy="2" result="offset"></feOffset><feGaussianBlur stdDeviation="3"></feGaussianBlur><feOffset dy="3"></feOffset><feColorMatrix result="blur" type="matrix" values="0.7 0 0 0 0  0 0.7 0 0 0  0 0 0.7 0 0  0 0 0 1 0"></feColorMatrix><feMerge><feMergeNode in="blur"></feMergeNode><feMergeNode in="offset"></feMergeNode><feMergeNode in="SourceGraphic"></feMergeNode></feMerge></filter></defs><g filter="url(#editing-rainbow)"><g transform="translate(107.01680478453636, 99.00000190734863)"><path d="M30.21-33.92L30.21-33.92L30.21-33.92Q25.02-33.92 21.25-35.65L21.25-35.65L19.20-25.28L31.55-25.28L31.55-25.28Q31.55-21.89 29.86-19.74L29.86-19.74L29.86-19.74Q28.16-17.60 25.09-17.60L25.09-17.60L25.09-17.60Q21.76-17.60 18.69-18.82L18.69-18.82L18.69-18.82Q18.05-19.07 17.98-19.14L17.98-19.14L14.34 0L0.38 0L8.51-42.24L37.06-42.24L37.06-42.24Q37.06-38.34 35.23-36.13L35.23-36.13L35.23-36.13Q33.41-33.92 30.21-33.92ZM50.82-3.52L50.82-3.52L50.82-3.52Q48.83 1.28 42.50 1.28L42.50 1.28L42.50 1.28Q39.23 1.28 37.18-0.96L37.18-0.96L37.18-0.96Q35.46-2.94 35.46-4.93L35.46-4.93L35.46-4.93Q35.46-10.11 37.82-20.22L37.82-20.22L40.19-32.64L53.18-33.92L49.28-13.70L49.28-13.70Q48.19-8.96 48.19-7.30L48.19-7.30L48.19-7.30Q48.19-3.65 50.82-3.52ZM41.34-41.54L41.34-41.54L41.34-41.54Q41.34-44.03 43.42-45.38L43.42-45.38L43.42-45.38Q45.50-46.72 48.51-46.72L48.51-46.72L48.51-46.72Q51.52-46.72 53.34-45.38L53.34-45.38L53.34-45.38Q55.17-44.03 55.17-41.54L55.17-41.54L55.17-41.54Q55.17-39.04 53.15-37.76L53.15-37.76L53.15-37.76Q51.14-36.48 48.13-36.48L48.13-36.48L48.13-36.48Q45.12-36.48 43.23-37.76L43.23-37.76L43.23-37.76Q41.34-39.04 41.34-41.54ZM76.29-17.98L76.29-17.98L76.29-17.98Q78.59-22.08 78.59-26.24L78.59-26.24L78.59-26.24Q78.59-28.99 76.61-28.99L76.61-28.99L76.61-28.99Q75.07-28.99 73.47-26.37L73.47-26.37L73.47-26.37Q71.81-23.74 71.30-20.35L71.30-20.35L67.97 0L54.72 1.28L61.25-32.64L71.81-33.92L70.66-27.46L70.66-27.46Q73.79-33.92 80.83-33.92L80.83-33.92L80.83-33.92Q84.54-33.92 86.56-32L86.56-32L86.56-32Q88.58-30.08 88.58-26.14L88.58-26.14L88.58-26.14Q88.58-22.21 85.98-19.71L85.98-19.71L85.98-19.71Q83.39-17.22 78.98-17.22L78.98-17.22L78.98-17.22Q77.06-17.22 76.29-17.98ZM108.74-22.46L108.74-22.46L108.74-22.46Q109.63-24.83 109.63-26.88L109.63-26.88L109.63-26.88Q109.63-30.66 106.56-30.66L106.56-30.66L106.56-30.66Q104.96-30.66 103.65-29.22L103.65-29.22L103.65-29.22Q102.34-27.78 102.34-25.98L102.34-25.98L102.34-25.98Q102.34-24.70 103.36-23.68L103.36-23.68L103.36-23.68Q104.83-22.27 108.61-19.97L108.61-19.97L108.61-19.97Q112.38-17.66 113.82-15.78L113.82-15.78L113.82-15.78Q115.26-13.89 115.26-11.30L115.26-11.30L115.26-11.30Q115.26-8.70 114.02-6.34L114.02-6.34L114.02-6.34Q112.77-3.97 110.53-2.30L110.53-2.30L110.53-2.30Q105.73 1.28 98.05 1.28L98.05 1.28L98.05 1.28Q93.89 1.28 90.69-0.90L90.69-0.90L90.69-0.90Q87.49-3.01 87.49-5.50L87.49-5.50L87.49-5.50Q87.49-8 89.31-9.47L89.31-9.47L89.31-9.47Q91.14-10.94 93.82-10.94L93.82-10.94L93.82-10.94Q96.51-10.94 98.18-9.92L98.18-9.92L98.18-9.92Q97.34-7.81 97.34-6.40L97.34-6.40L97.34-6.40Q97.34-2.18 100.93-2.18L100.93-2.18L100.93-2.18Q102.46-2.18 103.49-3.14L103.49-3.14L103.49-3.14Q104.51-4.10 104.51-5.76L104.51-5.76L104.51-5.76Q104.51-9.02 99.01-12.48L99.01-12.48L99.01-12.48Q94.53-15.42 93.50-16.58L93.50-16.58L93.50-16.58Q91.78-18.62 91.78-21.18L91.78-21.18L91.78-21.18Q91.78-23.74 92.99-26.18L92.99-26.18L92.99-26.18Q94.21-28.61 96.45-30.34L96.45-30.34L96.45-30.34Q101.12-33.92 109.25-33.92L109.25-33.92L109.25-33.92Q113.41-33.92 115.87-32.26L115.87-32.26L115.87-32.26Q118.34-30.59 118.34-27.78L118.34-27.78L118.34-27.78Q118.34-24.96 116.64-23.36L116.64-23.36L116.64-23.36Q114.94-21.76 111.87-21.76L111.87-21.76L111.87-21.76Q109.76-21.76 108.74-22.46ZM121.73-6.40L121.73-6.40L121.73-6.40Q121.73-8.13 122.62-12.48L122.62-12.48L126.02-29.76L122.24-29.76L122.50-31.68L122.50-31.68Q130.18-33.98 137.60-39.62L137.60-39.62L140.67-39.62L139.14-32.64L144.13-32.64L143.55-29.76L138.62-29.76L135.36-12.48L135.36-12.48Q134.53-8.51 134.53-7.17L134.53-7.17L134.53-7.17Q134.53-4.10 137.22-3.46L137.22-3.46L137.22-3.46Q136.58-1.28 134.27 0L134.27 0L134.27 0Q131.97 1.28 128.70 1.28L128.70 1.28L128.70 1.28Q125.44 1.28 123.58-0.77L123.58-0.77L123.58-0.77Q121.73-2.82 121.73-6.40ZM177.22-13.25L177.22-13.25L177.22-13.25Q178.88-12.03 178.88-9.44L178.88-9.44L178.88-9.44Q178.88-6.85 177.76-5.02L177.76-5.02L177.76-5.02Q176.64-3.20 174.46-1.79L174.46-1.79L174.46-1.79Q169.79 1.22 161.63 1.22L161.63 1.22L161.63 1.22Q153.47 1.22 149.02-3.04L149.02-3.04L149.02-3.04Q144.58-7.30 144.58-14.85L144.58-14.85L144.58-14.85Q144.58-25.54 150.14-33.66L150.14-33.66L150.14-33.66Q154.37-39.68 161.92-42.24L161.92-42.24L161.92-42.24Q165.82-43.52 169.66-43.52L169.66-43.52L169.66-43.52Q173.50-43.52 175.87-43.01L175.87-43.01L175.87-43.01Q178.24-42.50 180.03-41.47L180.03-41.47L180.03-41.47Q183.94-39.23 183.94-35.65L183.94-35.65L183.94-35.65Q183.94-32.38 180.86-29.95L180.86-29.95L180.86-29.95Q178.05-27.78 175.74-27.78L175.74-27.78L175.74-27.78Q173.44-27.78 172.48-28.10L172.48-28.10L172.48-28.10Q172.74-30.40 172.74-31.90L172.74-31.90L172.74-31.90Q172.74-33.41 172.67-34.50L172.67-34.50L172.67-34.50Q172.61-35.58 172.29-36.61L172.29-36.61L172.29-36.61Q171.65-38.98 169.70-38.98L169.70-38.98L169.70-38.98Q167.74-38.98 165.79-37.15L165.79-37.15L165.79-37.15Q163.84-35.33 162.18-32.26L162.18-32.26L162.18-32.26Q158.40-25.28 158.40-17.02L158.40-17.02L158.40-17.02Q158.40-13.06 160.64-10.78L160.64-10.78L160.64-10.78Q162.88-8.51 167.68-8.51L167.68-8.51L167.68-8.51Q171.26-8.51 174.66-10.88L174.66-10.88L174.66-10.88Q176.13-11.90 177.22-13.25ZM216.38-7.10L216.38-7.10L216.38-7.10Q216.38-4.29 219.26-3.46L219.26-3.46L219.26-3.46Q218.56-1.09 215.81 0.19L215.81 0.19L215.81 0.19Q213.50 1.28 210.98 1.28L210.98 1.28L210.98 1.28Q208.45 1.28 207.14 0.61L207.14 0.61L207.14 0.61Q205.82-0.06 205.12-1.15L205.12-1.15L205.12-1.15Q203.97-2.82 203.97-5.95L203.97-5.95L203.97-5.95Q203.97-7.81 204.99-12.93L204.99-12.93L205.89-17.79L205.89-17.79Q206.98-23.36 206.98-25.41L206.98-25.41L206.98-25.41Q206.98-28.99 204.99-28.99L204.99-28.99L204.99-28.99Q202.50-28.99 200.90-25.34L200.90-25.34L200.90-25.34Q200.26-23.94 199.81-21.82L199.81-21.82L195.46 0L182.59 1.28L191.62-44.80L204.48-46.08L203.97-43.52L203.97-43.52Q202.18-33.66 200.64-30.34L200.64-30.34L200.64-30.34Q204.22-33.92 210.82-33.92L210.82-33.92L210.82-33.92Q217.79-33.92 219.07-29.31L219.07-29.31L219.07-29.31Q219.52-27.84 219.52-26.56L219.52-26.56L219.52-26.56Q219.52-25.28 219.42-24.29L219.42-24.29L219.42-24.29Q219.33-23.30 219.01-21.50L219.01-21.50L218.18-16.90L216.70-9.66L216.70-9.66Q216.38-8.19 216.38-7.10ZM227.23-1.92L227.23-1.92L227.23-1.92Q225.73-3.58 225.06-6.21L225.06-6.21L225.06-6.21Q224.38-8.83 224.38-13.12L224.38-13.12L224.38-13.12Q224.38-17.41 225.86-21.31L225.86-21.31L225.86-21.31Q227.33-25.22 230.02-28.03L230.02-28.03L230.02-28.03Q235.52-33.92 244.61-33.92L244.61-33.92L244.61-33.92Q247.87-33.92 250.24-32.83L250.24-32.83L261.18-33.92L256.45-8.96L256.45-8.96Q256.26-8.19 256.26-6.78L256.26-6.78L256.26-6.78Q256.26-5.38 257.12-4.48L257.12-4.48L257.12-4.48Q257.98-3.58 259.26-3.46L259.26-3.46L259.26-3.46Q258.62-1.28 256.29 0L256.29 0L256.29 0Q253.95 1.28 251.33 1.28L251.33 1.28L251.33 1.28Q248.70 1.28 246.94 0.29L246.94 0.29L246.94 0.29Q245.18-0.70 244.67-2.37L244.67-2.37L244.67-2.37Q243.65-0.77 241.47 0.26L241.47 0.26L241.47 0.26Q239.30 1.28 236.38 1.28L236.38 1.28L236.38 1.28Q233.47 1.28 231.10 0.51L231.10 0.51L231.10 0.51Q228.74-0.26 227.23-1.92ZM240.74-27.90L240.74-27.90L240.74-27.90Q240-26.75 239.36-24.80L239.36-24.80L239.36-24.80Q238.72-22.85 237.66-17.63L237.66-17.63L237.66-17.63Q236.61-12.42 236.61-8.70L236.61-8.70L236.61-8.70Q236.61-4.99 237.18-3.90L237.18-3.90L237.18-3.90Q237.76-2.82 238.78-2.82L238.78-2.82L238.78-2.82Q240.83-2.82 242.34-4.77L242.34-4.77L242.34-4.77Q243.84-6.72 244.42-10.18L244.42-10.18L247.81-28.93L247.81-28.93Q246.46-30.08 244.90-30.08L244.90-30.08L244.90-30.08Q243.33-30.08 242.40-29.57L242.40-29.57L242.40-29.57Q241.47-29.06 240.74-27.90ZM265.66-6.40L265.66-6.40L265.66-6.40Q265.66-8.13 266.56-12.48L266.56-12.48L269.95-29.76L266.18-29.76L266.43-31.68L266.43-31.68Q274.11-33.98 281.54-39.62L281.54-39.62L284.61-39.62L283.07-32.64L288.06-32.64L287.49-29.76L282.56-29.76L279.30-12.48L279.30-12.48Q278.46-8.51 278.46-7.17L278.46-7.17L278.46-7.17Q278.46-4.10 281.15-3.46L281.15-3.46L281.15-3.46Q280.51-1.28 278.21 0L278.21 0L278.21 0Q275.90 1.28 272.64 1.28L272.64 1.28L272.64 1.28Q269.38 1.28 267.52-0.77L267.52-0.77L267.52-0.77Q265.66-2.82 265.66-6.40Z" fill="url(#editing-rainbow-gradient)"></path></g></g><style>text {
  font-size: 64px;
  font-family: Arial Black;
  dominant-baseline: central;
  text-anchor: middle;
}</style></svg>