<svg xmlns="http://www.w3.org/2000/svg" viewBox="0 0 512 512"><title>Artboard 122</title><g id="Physic_Subject" data-name="Physic Subject"><path d="M256,490.66667c-82.34375,0-149.33333-105.27084-149.33333-234.66667S173.65625,21.33333,256,21.33333A21.33334,21.33334,0,0,1,256,64c-56.82292,0-106.66667,89.71875-106.66667,192S199.17708,448,256,448a21.33334,21.33334,0,0,1,0,42.66667Z" style="fill:#163969"/><path d="M191.98958,461.07292a21.25911,21.25911,0,0,1-15-6.16667C133.61458,412.01042,106.66667,335.79167,106.66667,256S133.61458,99.98958,176.98958,57.09375a21.33138,21.33138,0,1,1,30,30.33333C171.42708,122.60417,149.33333,187.19792,149.33333,256s22.09375,133.39583,57.65625,168.57292a21.33332,21.33332,0,0,1-15,36.5Z" style="fill:#002755"/><path d="M176.21875,426.84375c-53.92708,0-98.83333-18.875-120.44792-56.01042a21.33205,21.33205,0,0,1,36.875-21.45833c27.875,47.86458,128.67709,46.14583,215.71875-3.69792,58.33334-33.40625,102.375-83.32291,114.96875-130.29166,3.84375-14.34375,6.27084-35.14584-3.97916-52.76042a21.33205,21.33205,0,1,1,36.875-21.45833c13.95833,23.97916,16.83333,53.46875,8.3125,85.26041C449.125,283.97917,397.40625,343.85417,329.57292,382.69792,277.94792,412.27083,223.60417,426.84375,176.21875,426.84375Z" style="fill:#5e7599"/><path d="M341.35417,371.52083A21.33348,21.33348,0,0,1,329.3125,332.5625c50.375-34.375,86.97917-81.69792,95.5-123.48958a21.33594,21.33594,0,1,1,41.8125,8.52083c-10.82292,53.05208-53.16667,109.19792-113.27083,150.21875A21.22137,21.22137,0,0,1,341.35417,371.52083Z" style="fill:#002755"/><path d="M213.30208,423.59375a21.33481,21.33481,0,0,1-3.3125-42.40625c26.13542-4.14583,53.57292-12.94792,79.36459-25.46875a21.33735,21.33735,0,0,1,18.625,38.39583,326.88747,326.88747,0,0,1-91.30209,29.21875A21.86171,21.86171,0,0,1,213.30208,423.59375Z" style="fill:#163969"/><path d="M335.78125,426.84375c-47.38542,0-101.72917-14.57292-153.35417-44.14583C114.59375,343.85417,62.875,283.97917,47.45833,226.42708c-8.52083-31.79166-5.64585-61.28125,8.3125-85.26041a21.33205,21.33205,0,0,1,36.875,21.45833c-10.25,17.61458-7.82291,38.41667-3.97916,52.76042,12.59375,46.96875,56.63541,96.88541,114.96875,130.29166,87.01041,49.85417,187.84375,51.59375,215.71875,3.69792a21.33205,21.33205,0,0,1,36.875,21.45833C434.61458,407.95833,389.69792,426.84375,335.78125,426.84375Z" style="fill:#33527d"/><path d="M95.5,298.66667a21.32925,21.32925,0,0,1-17.51042-9.11459c-16.5625-23.6875-27.84375-48.57291-32.61458-71.94791a21.338,21.338,0,1,1,41.81248-8.54167c3.6146,17.70833,12.52085,37.09375,25.78127,56.05208A21.33279,21.33279,0,0,1,95.5,298.66667Z" style="fill:#002755"/><path d="M336.26042,426.67708q-8.71875,0-17.80209-.65625a21.34812,21.34812,0,0,1-19.73958-22.82291c.84375-11.76042,11.23958-20.3125,22.82292-19.73959,20.76041,1.47917,40.30208-.21875,56.40625-4.97916a21.33474,21.33474,0,1,1,12.10416,40.91666C373.69792,424.23958,355.65625,426.67708,336.26042,426.67708Z" style="fill:#002755"/><path d="M256,490.66667A21.33334,21.33334,0,0,1,256,448c56.82292,0,106.66667-89.71875,106.66667-192S312.82292,64,256,64a21.33333,21.33333,0,0,1,0-42.66667c82.34375,0,149.33333,105.27084,149.33333,234.66667S338.34375,490.66667,256,490.66667Z" style="fill:#163969"/><path d="M384,277.33333A21.33438,21.33438,0,0,1,362.66667,256c0-68.80208-22.09375-133.39583-57.65625-168.57292a21.33138,21.33138,0,1,1,30-30.33333C378.38542,99.98958,405.33333,176.20833,405.33333,256A21.33438,21.33438,0,0,1,384,277.33333Z" style="fill:#002755"/><path d="M74.22917,381.4375a21.31168,21.31168,0,0,1-18.45834-10.60417c-13.95835-23.97916-16.83333-53.46875-8.3125-85.26041C62.875,228.02083,114.59375,168.14583,182.42708,129.30208c110.375-63.23958,233.1875-57.90625,273.80209,11.86459a21.33205,21.33205,0,0,1-36.875,21.45833c-27.875-47.88542-128.67709-46.15625-215.71875,3.69792-58.33334,33.40625-102.375,83.32291-114.96875,130.29166-3.84375,14.34375-6.27084,35.14584,3.97916,52.76042a21.33409,21.33409,0,0,1-18.41666,32.0625Z" style="fill:#5e7599"/><path d="M193.05208,169.14583a21.33317,21.33317,0,0,1-10.625-39.84375c35.89584-20.5625,74.9375-34.61458,112.89584-40.63541a21.33655,21.33655,0,0,1,6.6875,42.14583c-32.90625,5.21875-66.92709,17.5-98.375,35.51042A21.22218,21.22218,0,0,1,193.05208,169.14583Z" style="fill:#163969"/><circle cx="256" cy="256" r="64" style="fill:#c776f6"/><path d="M256,192l-.091.00008-.03044.00008-.05957.00008-.03776.00017-.07015.00024-.06885.00033-.01546.00008q-.21.00122-.41976.00374l-.01741.00025-.03825.00048c-.30957.004-.617.01018-.92562.01864A21.10065,21.10065,0,0,0,233.87712,213.532a21.56627,21.56627,0,0,0,21.52067,21.13916c.06461,0,.13086-.00024.19563-.00081L256,234.66667a21.57007,21.57007,0,0,0,2.86312-.21623,21.49431,21.49431,0,0,0,2.76481.9554,21.34286,21.34286,0,1,1-24.889,29.80038,21.33331,21.33331,0,1,0-38.45605,18.48169q.90747,1.88805,1.93278,3.70564l.00049.00082c.04557.08073.09033.15983.13623.24031l.00211.00367c.07959.13964.16032.28019.24105.41927l.00016.00032c.11621.20044.23242.39836.35075.59733l.0013.00244c.1294.21762.26075.43547.39274.65145l.00212.00358c.04753.0778.09456.15438.14225.23194l.00537.00862c.03418.05534.07032.11385.10466.16911l.0026.004c.04883.07861.096.15438.14519.23275l.00162.00252c.03614.05754.07194.11466.10824.172l.0026.00407q.073.11547.14632.23055l.0031.005c.08561.134.17317.27026.2596.40357l.00244.00366c.03695.057.07276.1119.10986.1687l.00359.00545.03613.05526.00228.00358c.03646.05558.07243.11051.109.166l.00651.01.10758.16236.00554.00846.03271.04932.01058.01579.10612.15877.00505.00757.03662.0546h0l.11507.17066.00276.00415c.03728.055.07471.11019.11215.165l.00472.007.03711.05452.00048.00057c.03825.056.0752.11.11361.16593l.00716.01026q.05518.08032.11068.1604l.00521.00749.03613.05232.006.00863.11.158.00863.01213.03548.05086.00032.0004.07211.10271.01009.01424.03255.04647.012.01684c.03565.0507.07048.09977.10629.15031l.01009.01424c.03678.05176.0734.10319.11035.15479l.00781.0109.03272.04574.01448.02018.10547.14681.01172.0162.03288.04557.01237.01709.06722.09269.00569.00773.03451.04745.01139.01578c.03646.05.07227.09888.10889.14885l.01107.01522.03466.04728.00944.01286.11019.14941.01237.01668.11068.14917.00911.01229.03581.04793.00928.01254.11214.14957.01107.01481.03581.04745.00651.00879.067.089.01384.01823.0332.04386.01416.01864.10693.14054.01693.022.03207.04208.013.017.06347.08276.01319.01717.0306.0398.0205.02661.0306.03979.00261.00326.07063.09122.01726.0223.0319.04118.01855.02393.058.07438.015.01912.03271.04191.01726.022.03157.04044.01465.01864.062.07886.01546.01969.03272.04159.01693.0214.06006.07593.01513.0192.03125.03931.01937.02433.03206.04037.01921.02417.05322.06648.02051.0258.03223.04028.01725.02141c.03695.04606.07373.092.11084.13785l.01416.0175.03548.04395.01156.01424.06347.07837.01791.02221.03271.04012.0166.02043c.03728.04582.07243.089.10987.1346l.01823.0223.03418.04151.01383.01684.06755.0822.01106.01342.03353.04053.02.02417.03223.03906.01058.01278.06657.08016.01758.02108.03238.03906.02019.02409.05713.06836.01985.02384.03028.036.02311.02759.0293.03483.02636.03141.05062.06006.02149.02539.03141.03719.02262.02678.04574.05379.02946.03467.0306.036.02392.02808.02946.0345.02914.034.043.05021.02832.0332.029.03361.02522.02946.02946.03418.04655.054.02979.03434.02295.02661.03108.03589.02767.032.03939.04525.03548.04077.02621.03.02962.03394.02507.02881.04964.05664.023.026.03418.039.02392.02726.03434.039.0254.02881.047.05322.02279.0258.03337.0376.02587.02921.04395.04948.028.03142.033.037.02588.02906.03435.03841.02148.02392.05078.05664.02572.02865.03157.03516.02474.02742.03516.039.043.04761.02783.03068.03.033.02571.02832.03011.0332.04786.05258.029.03165.028.03076.029.03174.03337.03646.03792.04126.03353.03654.02946.03206.02848.03093.02832.0306.04981.054.02669.02873.02962.032.02865.03085.03027.03255.04069.0437.03728.04.02555.02742.0319.03418.02637.028.04736.05054.02832.03019.03337.03532.02767.02954.0332.03515.02311.0245.05257.0555.02458.026.035.03687.02556.02693.03369.03532.04573.048.0293.0306.02783.02921.03255.03386.0267.02791.05143.05347.02637.0275.03141.03247.02783.029.03858.04.03515.03622.03662.03784.02832.02913.03142.03231.02669.02743.05111.0524.0288.02946.03207.0328.0262.02686.03972.04052.02653.02694.04638.0472.02588.02629.0332.03361.028.0284.05306.05363.0223.02246.0358.036.02816.02832.03451.03467.03076.03076.04687.047.02816.02815.03239.03223.02588.02588.04867.04842.02734.02726.04036.04.02344.02328.03939.039.02132.02107.057.05624.01871.01847.04362.04281.02133.02108.05566.0546.01481.01441.04639.04541.02506.02449.03907.03809.02229.02164.05664.055.021.02034.04167.04037.02067.02.04834.04679.02343.02262.049.04712.02164.02084.04281.04126.01937.01855.05875.05623.01888.018.04265.04077.02409.02287.04948.04712.01025.00985.06022.05712.02.01888.04541.04314.01872.01766.05989.05647.016.015.0459.04321.0223.02091.0472.04436.01514.01416.06087.057.01855.01726.04314.0402.02343.02189.05876.05452.01318.01221.0503.04671.02083.01913.04688.04337.01643.01522.06071.05591.01758.01611.0485.04468.01807.01652.05941.05436.00814.00741.05745.05257.02051.01864.04541.04126.02034.01855.06006.05444.01774.0162.04688.04232.01969.01782.06039.05452.00293.00261.0638.05737.01823.01644.05062.04533.01432.01277.06413.05738.01188.01058.05322.04752.01872.0166.05534.04908.00879.00789.06445.05713.01579.014.05127.04524.01692.0149.06527.05761.00212.00171.061.05371.01953.01709.05453.04777.00993.00863.0664.05786.01188.0105.05534.0481.01481.01277.0656.05705.00488.00415.06217.05379.015.013.05664.04883.01041.00887.06836.05876.00554.00488.06217.05322.0127.01083c.04557.03906.089.076.1346.11491l.01383.01171.05648.04794.0127.01082.06673.05656.00944.00789.05876.04965.01416.01188.06608.05566.001.00082.06853.05761.01383.0114.05485.046.015.01253.06706.05591.00733.00618.05957.04948.01757.01457.06006.0498.00619.005.06673.05526.01758.01456.05208.04281.01693.014.06738.05533.00163.00122.0651.05339.01742.01424.05534.04517.013.01066.06852.05583.00863.00691.05989.04859.015.0122c.04671.03785.08984.07276.13671.11036l.01563.01261.05924.04761.00879.00724.07162.05729.00325.00261.06836.0546.0083.00667c.047.03752.09619.07666.14323.11394l.0083.00659.06315.05013.01091.00854.07129.05632.00114.00089.0664.05225.01579.01237.06722.05282.00114.00081.07162.056.01106.00871.063.04915.00863.00667.07259.05648.00081.00057.07048.05469.01041.00806.06983.05387.001.00073.07373.05689.00683.0052.06462.04957.01188.00919c.04769.03654.09424.07219.14209.10856l.01318.01.06494.0494.0057.00439.07406.05608.00374.00293.0682.05159.01009.00765.14567.10954.00944.007.06478.04858.00927.007c.04818.036.09847.07357.14681.10937l.00879.0066.147.10888.00862.00635.06706.0494.00781.00586.14828.1088.008.00578.07324.05355.00049.00032.07585.05526.00553.004.0695.05045.00749.00546.1486.10734.01009.00724c.05029.0363.09961.07162.15007.10783l.00211.00146.0721.05152.00847.006.14892.106.00993.007.06852.0485.00619.00431c.05078.03589.09912.07.1499.10563l.01026.00725.15087.10563.00554.00374.07536.05249.00032.00025.15593.10815.00439.003.155.10677.0039.00261.07325.05021.006.00407c.05127.03515.10189.06974.15332.10465l.00716.005.07568.05135.00033.00016.07715.05216.00846.00578.0695.04688.00732.00488.15446.10376.006.00391c.07666.05135.15706.10481.23405.15584l.00569.00382.15576.10287.00586.00382.07634.05021.001.00066.15821.10343.00553.00358c.07894.05151.15918.10352.23845.1547l.00211.00139.15934.10246.00456.00293c.08122.052.15918.1018.24072.15348l.00114.00081c.0542.03443.10759.0682.16211.10246l.00082.00057c.07991.05037.16162.10164.2417.15161l.005.00317c.05453.0341.10677.06657.16146.10043l.00049.0004c.082.05079.16178.1.24414.15056l.00374.00228c.05485.03369.10628.06518.16113.09863l.00424.0026.0747.04541.008.00489.15836.09586.00782.00464c.08089.04883.16308.09823.2443.14673l.00016.00008.16553.09855.00065.00041c.08138.04826.16488.09757.24642.14551l.00472.00268c.0555.03264.10726.06283.16276.0953l.00423.00244c.0835.04867.16325.095.24691.14323l.00261.00146.1652.09506.00293.00162q.12329.07056.24674.14063l.00667.00382.16456.09294.0013.00073.08317.04671.00032.00025c.05632.03157.11052.06193.16683.09326l.00391.0022c.08447.047.16488.09155.24951.13826l.00374.002c.05648.03108.11133.06128.168.0922l.00017.00008c.08479.04647.16764.09156.25276.13762l.00375.002c.05664.03076.11181.06047.16862.091l.00016.00008.08512.04566.00017.00008c.0568.03044.11214.06.16927.09025l.00276.00155c.057.03027.11166.05924.16879.08935l.0026.00139c.08561.04524.16862.0887.25439.13354l.00261.00122c.08577.04484.16862.08781.25472.13224l.00309.00163c.0555.02865.11231.05786.168.08635l.00667.00341c.08448.0433.16976.08667.2544.12956l.00195.001c.14225.0721.28662.14453.42953.21557l.00553.00269c.05794.02881.11279.056.1709.08455l.00081.00049c.08708.04289.172.08456.25928.12712l.00293.00146c.05827.02832.11393.05542.1722.08358l.00277.0013.08317.0402.00374.00179c.05827.02808.11328.05453.17171.08244l.00423.002.17237.082.00228.00106.08365.03963.00424.002.17317.08146.002.001c.23453.11.46777.21753.70394.32471l.00179.00081c.14746.067.29264.13216.44075.19808l.00374.00163c.14812.06592.2933.1298.44206.19458l.00309.00138q.13111.05714.26221.11353l.00733.00309c.05582.02409.11669.05013.17268.07406l.00765.00325.08269.03516.00358.00154c.05973.02539.11588.04916.17578.0743l.00472.002c.05973.02523.11751.0494.17741.07438l.00032.00016.08627.03589.00537.00228.1748.07243.00716.00293c.05827.02392.117.04809.1753.07186l.00423.00171.08561.035.00309.00122c.06022.0245.11768.04777.17806.0721l.00342.00139c.0905.03654.17822.07169.26888.10774l.00179.00066c.05859.02335.11865.04711.17741.07023l.0083.00333c.089.03508.17676.0695.266.10417l.00358.00138c.14974.05827.301.11638.45117.17359l.00619.00228c.15039.05712.30208.11417.45312.17024l.00326.00131c.08984.03328.1792.06624.2692.0992l.00765.00285.17709.06453.008.00285q.13526.04906.27051.09741l.0026.001c.06153.022.12061.043.1823.06478l.00325.00114.08919.03149.00163.00065.1805.06323.00765.00269.179.06209.00684.00236.08642.02979.00309.001c.0599.02059.12061.04135.18067.06177l.00781.00269.18164.06144.00081.00024.08838.02971.00668.00219.17985.06.00862.00285c.0892.02954.18246.06022.272.08944l.00553.00179c.06217.02034.11979.03906.18213.05916l.00537.00171c.08968.029.18343.059.27327.08757l.00814.0026.18034.05705.009.00276.08659.02718.00261.00082.18343.05705.007.00219.18457.05673.00048.00016.091.02775.00455.00138c.06283.01913.12126.03679.18409.05567l.00569.00179c.15528.04663.31315.0935.46892.13908l.001.00024c.09457.02767.186.0542.28076.08138l.00505.00146c.0612.01766.12288.03524.18408.05266l.00814.00228c.09294.02636.18538.05241.27848.07837l.00326.00089c.06347.01774.12418.03459.18766.05208l.00293.00082.09115.025.00358.001q.09228.02526.18473.05029l.0096.00269.18522.0498.00212.00049.09.024.00683.00179c.06169.01644.12272.03255.18457.04874l.00895.00236.0905.02369.00032.00008.18392.0476.01319.00342.18115.04631.01237.00309.085.02157.00537.0013.09359.02352.00293.00081.089.02222.00928.00228c.06022.015.12321.03059.18326.04532l.01254.0031.08056.01969.01237.00309.18311.04436.01042.00252.18359.04386.01253.003.08236.01945.00928.0022.18375.043.01384.00317.08414.01954.00668.00154.09212.02116.00944.0022.08171.01863.01481.00334c.06054.01384.12076.02743.18147.041l.01433.00325.085.019.00569.00122c.06267.014.123.02735.18588.0411l.012.00269.18311.03987.01562.00334.07764.01668.01465.00318.09228.01969.00147.00033.08772.01863.01709.00358.08708.01831.00228.00049.09131.019.016.00334.07682.01587.01693.0035.08984.01847.00684.00139.08236.01676.02.00407.08121.01644.00847.00171.09082.01823.01546.00309.07487.01489.02051.00407.17854.03508.02068.004.07845.01522.0109.00212.091.01749.01416.00277.07829.01489.01742.00334.18278.03442.01448.00269.082.01522.0114.00211.18327.03369.01855.00334c.06152.01123.11995.02173.18164.03272l.0179.00325.07634.01359.01644.00285.09163.01619.00537.0009.08529.01489.01921.00334.08024.01392.0109.00187.09131.01562.01449.00244.07861.01343.01741.00293c.06185.01042.12.02018.18181.03036l.01937.00325.08431.01392.00586.001.09423.01538.01091.00171.08219.01335.01579.00252.18473.02938.0166.00269.08122.01269.01156.00179.09261.01441.01269.002.07715.0118.02377.00366.18017.02726.01921.00285.07845.01172.01383.002.09457.01391.00195.00025.08919.013.01742.00252.0874.01253.00456.00065.09358.01335.015.00212.07763.0109.01921.00269.09261.01294h.00016l.09131.01253.01807.00252.08545.01156.00618.00089.09375.01253.01481.002.07829.01033.0197.00261.18424.024.01725.00227.07894.0101.01612.002.09163.01156.01351.0017.0791.00985.02018.00252.18229.0223.0236.00285.07487.00895.016.002.0931.011.01058.00122.08041.00944.023.00261.082.00944.00911.00106.09164.01041.0192.0022.07552.00838.02035.00228.18245.02.0236.00252.07845.00838.01319.00147.09147.0096.01888.002.07471.00773.022.00228.09.00919.01123.00114.08171.00822.023.00228.07617.00757.01611.00163.0918.009.01693.00162.07471.00717.02555.00244.182.017.02115.002.07748.00708.01693.00155.09114.00813.01839.00163.07422.00651.02409.00212.08317.00716.00895.00081.09082.00773.02344.002.07259.006.02116.00179.09147.00741.01335.00105.07861.00635.02507.002.07991.00627.0114.0009.09049.007.02441.00188.07211.00537.022.00162.0931.00692.00163.00008.08951.00643.02328.00171.07633.00537.01742.00122.09228.00635.01661.00114.07763.00521.02116.00146.18506.012.02393.00154.07454.00464.019.00122.09147.00554.01791.00105.07633.00456.0236.00138.08545.005.00716.00041.0918.00512.02246.0013.0752.00407.0205.00114.091.0048.01888.001.07194.00374.02995.00147.07438.00374.01725.0009.089.00423.02718.0013.06934.00326.02376.00114.09066.00407.01676.00073.077.00333.02555.00106.07682.00326.01612.00065.092.00374.02148.00082.07178.00284.027.001c.05989.00228.12369.00464.18359.00667l.02393.0009.078.0026.01611.00057.09245.003.02083.00065.07357.00228.0249.00074.09164.00268h.00049l.09309.00261.02523.00065.0682.00179.02816.00073.0887.0022.02067.00048.07324.00163.02751.00065.08105.00171.01075.00025.09179.00179.02442.00049.07422.0013.02132.0004.09261.00155.01383.00016.08024.00122.02474.00041.0765.001.01839.00024.09115.00114.02311.00025.07292.00073.02441.00024.09278.00082h.008l.08317.00065.02979.00016.07226.00041.01986.00008.0918.0004h.02213l.07341.00025h.02522L256,320h0a64.00009,64.00009,0,0,0,64-64v-.096l-.00016-.03109-.00017-.06461-.00016-.03695-.00016-.06111-.00016-.03589-.00033-.06332-.00016-.03393-.00065-.08228-.00017-.01334-.00081-.09441-.00033-.03116-.00065-.06633-.00032-.03459-.00082-.06079-.00048-.038-.00082-.063-.00049-.03231-.00114-.08569-.00016-.00985-.00163-.09546-.00048-.02994-.00131-.0656-.00065-.03694-.00114-.06079-.00081-.03475-.0013-.06486-.00082-.03264-.00179-.07674-.00032-.0188-.00228-.09334-.001-.03345-.00162-.06364-.001-.03581-.00163-.06-.00114-.03736-.00179-.06233-.001-.033-.00244-.07927-.00048-.01579-.0031-.09635-.00081-.02311-.00244-.07137-.00114-.0354-.00228-.0612-.0013-.03516-.00228-.06177-.0013-.036-.00293-.07487-.00065-.01839-.00391-.09562-.001-.02287-.00309-.07422-.0013-.03-.00277-.06355-.00163-.03695-.00276-.06144-.00163-.03386-.00326-.071-.00113-.02425-.00456-.09391-.0013-.02662-.00342-.06795-.00179-.037-.0031-.05916-.00195-.03589-.00325-.0625-.00179-.03385-.00391-.07-.0013-.02466-.00537-.09391-.00131-.02417-.00423-.07178-.00179-.032-.00374-.06364-.00212-.03361-.0039-.06445-.002-.03174-.00455-.07259-.00131-.02214-.00618-.095-.0013-.019-.00489-.07633-.00211-.03158-.00423-.06307-.00244-.03467-.00424-.06136-.00244-.03589-.00472-.06518-.002-.0284-.00667-.093-.00179-.02328-.00521-.07194-.00261-.03515-.00439-.05689-.00309-.04183-.00424-.05412-.00309-.03979-.00472-.06087-.0026-.03223-.00733-.0918-.002-.02514-.0057-.0695-.00293-.03467-.005-.06087-.00293-.03451-.00521-.06168-.00293-.03483-.0057-.06543-.00244-.02792-.00814-.09334-.00146-.01619-.00716-.07886-.00277-.03-.0057-.06364-.00341-.0363-.00537-.05875-.00342-.03605-.00586-.06275-.00293-.03117-.009-.0931-.00065-.00634-.00847-.08667-.00342-.03361-.00585-.06022-.00375-.03711-.00569-.0564-.00407-.04-.00586-.05794-.00358-.034-.00879-.08512-.001-.00977-.00977-.09171-.00309-.02914-.00683-.06331-.00391-.0363-.00651-.06022-.00374-.03377-.00684-.06177-.00358-.033-.009-.07959-.00147-.01351-.01025-.09065-.0044-.03768-.00634-.05526-.00456-.03939-.00651-.05566-.00456-.0385-.00683-.05794-.00407-.03467-.0083-.06925-.00293-.02466-.01107-.091-.00374-.03011-.00765-.062-.00472-.03768-.007-.05648-.00472-.03727-.00733-.05868-.00439-.03434-.00944-.07365-.00244-.01912-.01189-.09156-.0039-.03011-.00814-.06234-.00488-.03621-.00765-.0577-.00488-.0367-.008-.06022-.00439-.032-.00961-.07081-.00309-.02294-.0127-.09164-.00358-.02653-.00911-.06461-.00521-.03728-.008-.05672-.00521-.03662-.0083-.05884-.00472-.03353-.01009-.06925-.00342-.02385-.01319-.09049-.00407-.02824-.0096-.06518-.00472-.03215-.00911-.06128-.00537-.03516-.00847-.057-.00569-.03671-.00879-.05843-.00521-.03466-.01384-.0892-.00374-.02482-.01042-.0673-.0052-.0328-.00961-.06136-.00537-.03344-.00944-.06047-.00521-.03206-.01155-.07243-.0031-.01953-.01513-.09335-.00244-.01521-.01254-.07658-.00488-.02938-.01025-.06242-.00586-.0354-.00977-.05876-.00537-.03239-.01155-.06892-.00391-.0232-.01611-.09424v-.00048l-.0153-.08936-.00521-.03-.01074-.06217-.00586-.03345-.01042-.05973-.0057-.03288-.01172-.066-.00455-.026-.01595-.09017-.00424-.02311-.01236-.06853-.00586-.03263-.01075-.05949-.00651-.03581-.01041-.05737-.00635-.0341-.01123-.06136-.0057-.031-.01676-.09-.00244-.01253-.01449-.07772-.00635-.03377-.0109-.05746-.00716-.03727-.01026-.054-.00716-.03759-.01123-.05852-.00635-.03255-.01513-.07772-.00684-.03556-.0127-.06486-.00748-.0376-.01058-.05363-.00781-.03979-.01026-.05143-.008-.03956-.01058-.05338-.00765-.03752-.01481-.07365-.00668-.03287-.01416-.06926-.0083-.04085-.01041-.05013-.00847-.041-.01041-.05037-.00814-.03931-.01156-.05582-.00732-.03443-.015-.07137-.00569-.027-.01693-.08016-.00651-.03043-.013-.06047-.00749-.0354-.01188-.05469-.008-.03759-.01171-.05347-.00814-.03752-.01563-.07169-.00374-.01685-.01937-.08789-.00732-.033-.0127-.05786-.008-.03581-.01221-.0546-.0083-.03646-.013-.05819-.00716-.0319-.01563-.069-.00488-.02132-.02-.0874-.00733-.03239-.01318-.057-.00879-.03809-.01237-.0533-.0083-.036-.01318-.05656-.008-.03385-.01855-.07927-.002-.00822-.02115-.08952-.00717-.03011-.01448-.06038-.00814-.0341-.01335-.0555-.00846-.03564-.01367-.05656-.0083-.03418-.01433-.05852-.00764-.03165-.021-.08545-.00716-.02954-.0153-.06161-.008-.03239-.01416-.05729-.00862-.03426-.014-.05615-.00863-.03467-.01676-.06665-.00537-.02116-.02214-.08765-.00749-.02937-.01546-.06039-.00862-.03426-.01416-.05509-.00912-.035-.015-.058-.00814-.03158-.01676-.06461-.00635-.0245-.023-.08781-.006-.02287-.01742-.06616-.00863-.03279-.015-.05624-.00911-.0345-.01482-.05575-.00927-.03442-.01709-.06389-.00619-.02335-.02392-.08822-.0057-.02124-.01855-.068-.00814-.03028-.01595-.0581-.00928-.03418-.01563-.05648-.009-.03279-.01676-.06047-.00781-.02832-.02426-.08716-.00455-.01644-.02035-.07234-.00862-.03077-.01579-.05639-.01026-.036-.01464-.05192-.01075-.038-.01611-.05623-.00846-.03011-.02474-.08618-.00635-.02222-.019-.06576-.00977-.03352-.01579-.05477-.01009-.03451-.0166-.05713-.00911-.03117-.01758-.06-.00847-.029-.02571-.08676-.00309-.01049-.02263-.07666-.0096-.03223-.0166-.0555-.01042-.03443-.01627-.05444-.01026-.03442-.01839-.06055-.00765-.02572-.0262-.086-.00359-.01205-.0236-.07715-.00879-.02889-.0179-.05794-.01058-.03475-.01644-.05306-.01123-.03662-.015-.04818-.01253-.04028-.0197-.06315-.01107-.03557-.02213-.07031-.01107-.03532-.01627-.05159-.01189-.03736-.01562-.04923-.01253-.03955-.01628-.05094-.01074-.0341-.02-.06226-.01335-.04175-.02148-.06648-.01123-.03484-.01693-.05216-.01156-.03581-.01725-.053-.01139-.035-.01758-.05355-.0109-.033-.02116-.06461-.00733-.02246-.02767-.08342-.01123-.03393-.01725-.05184-.01253-.03752-.01644-.049-.01286-.0389-.01676-.04964-.01189-.03532-.01953-.0577-.01106-.033-.0267-.07886-.01139-.0332-.01774-.05233-.01253-.03637-.01774-.05168-.01221-.03548-.01758-.05135-.012-.03483-.02116-.061-.00863-.02482-.02946-.08463-.00863-.02491-.02083-.05981-.01221-.03467-.01774-.05062-.01351-.038-.01774-.05021-.01172-.03353-.022-.06177-.00879-.02458-.02994-.084-.00961-.02686-.02034-.05672-.013-.03654-.01823-.05037-.01335-.037-.01693-.04679-.01416-.03931-.01823-.05-.01269-.03483-.0293-.08024-.01318-.03605-.01807-.04891-.014-.03809-.01741-.0472-.01449-.0393-.01774-.04786-.013-.03531-.02067-.05526-.01139-.03076-.03044-.0813-.012-.03215-.01921-.0511-.01465-.03874-.01774-.0472-.015-.03947-.01644-.0433-.01562-.04126-.01921-.05021-.01253-.03271-.03125-.082-.00961-.02482-.02295-.05957-.01318-.03418-.01888-.049-.0153-.03955-.01774-.04541-.01465-.038-.01872-.048-.01448-.03719-.03109-.07911-.01221-.03116-.02067-.05241-.01464-.037-.01921-.04867-.01432-.03637-.01888-.04745-.01481-.03735-.02-.05013-.01351-.03377-.02946-.07374-.01449-.03588-.02148-.05339-.01579-.03914-.01774-.04379-.01677-.04134-.01741-.04313-.016-.03931-.01839-.04508-.01628-.03963-.02262-.05526-.02214-.054-.021-.05111-.01612-.03906-.01839-.04468-.01693-.04077-.01676-.04045-.01807-.04329-.01725-.04159-.01693-.04044-.02246-.05388-.02344-.05574-.021-.05-.01807-.04273-.01627-.03857-.01937-.046-.01563-.03654-.01872-.04427-.01676-.03915-.01839-.04345-.01986-.04623-.02685-.06274-.02084-.0485-.0179-.04183-.01807-.04175-.01806-.04167-.01693-.03906-.01872-.04338-.01774-.04085-.0179-.04085-.0197-.04533-.02588-.05924-.02392-.05445-.01611-.03678-.02-.04525-.01742-.03971-.01937-.04362-.01644-.037-.0205-.04639-.01693-.03816-.02018-.04525-.02507-.05615-.0249-.05559-.01839-.04109-.01856-.04118-.02-.04419-.015-.03353-.02181-.04793-.01611-.03581-.01986-.04354-.0197-.04354-.0205-.04484-.03109-.06811-.01856-.04053-.01855-.04037-.02-.04378-.01725-.03743-.01921-.04159-.01888-.04085-.01937-.04191-.01757-.0376-.0433-.09334-.01074-.02287-.0197-.04224-.0192-.04093-.019-.04077-.01807-.03841-.02051-.04338-.01741-.03711-.02084-.04394-.01676-.03557-.0778-.16373-.0166-.03467-.021-.04387-.01774-.037-.02034-.04248-.01807-.03744-.02132-.04443-.01677-.03467-.02148-.04443-.03581-.0739-.01806-.03719-.02149-.04427-.01937-.03955-.019-.039-.02035-.04175-.02018-.041-.01872-.03825-.02311-.0468-.01611-.03287-.0376-.0761-.01823-.03662-.021-.04256-.02035-.04085-.02-.04012-.0192-.03849-.02133-.04265-.019-.03825-.02213-.04378-.01791-.03581-.035-.06966-.01937-.03825-.02409-.04752-.01855-.03662-.02165-.04265-.01969-.03881-.02084-.04086-.02034-.03979-.01953-.03833-.02116-.04134-.02279-.04452-.03483-.06754-.02051-.04-.02083-.04029-.02067-.04-.0197-.03809-.0218-.042-.02-.03866-.02214-.04231-.01888-.03614-.02555-.04907-.03207-.06112-.02278-.04337-.021-.04-.01937-.03662-.02311-.04378-.01888-.03589-.022-.04143-.02116-.03979-.02-.03784-.02767-.05209-.02962-.0555-.02377-.04443-.022-.0411-.02018-.03735-.02149-.04-.02067-.03857-.02213-.0411-.02051-.03792-.02148-.03955-.02116-.03915-.03679-.06779-.02474-.04541-.01888-.03467-.02327-.04248-.02116-.03873-.02165-.03939-.022-.04-.02051-.03727-.0223-.04045-.02246-.04077-.03711-.0673-.02311-.04159-.022-.03955-.02148-.03865-.02149-.03841-.022-.03964-.02246-.04-.021-.03752-.02181-.039-.02327-.04126-.03581-.06372-.02555-.04517-.02247-.03979-.02034-.03589-.0236-.04175-.021-.037-.02278-.04-.02165-.03784-.022-.03857-.02328-.04069-.04736-.08252-.014-.02442-.0262-.04549-.01823-.03165-.0236-.0411-.02165-.03727-.02327-.04045-.02067-.03548-.02393-.0411-.02051-.03532-.042-.0721-.02328-.03988-.02441-.04174-.01953-.03321-.0249-.04223-.021-.03581-.02392-.04069-.02035-.03442-.02458-.04167-.02213-.03719-.03207-.05412-.033-.05558-.021-.0354-.02474-.04143-.02149-.03588-.02425-.04053-.02311-.03841-.022-.03679-.0236-.03938-.02116-.03508-.05876-.09725-.00814-.01335-.02783-.04614-.01676-.02742-.02816-.04647-.01823-.03-.02669-.04378-.01937-.03158-.026-.04264-.021-.03418-.09359-.15243-.0205-.033-.02491-.04028-.02164-.03507-.02556-.04126-.02067-.03321-.026-.04191-.01985-.03174-.02719-.0437-.01676-.02685-.04932-.0787-.0236-.03759-.02457-.03907-.02263-.036-.02523-.04-.02132-.03361-.026-.04126-.02181-.03434-.02555-.04036-.02263-.03557-.04736-.0743-.02051-.03231-.02636-.04109-.02149-.03345-.02718-.04264-.01969-.03044-.02751-.04289-.02018-.03141-.02767-.04289-.02051-.03173-.05-.07707-.0205-.03174-.02735-.042-.02148-.033-.026-.04-.02295-.03508-.02458-.03776-.0249-.03776-.02474-.03776-.02018-.03084-.05323-.08089-.01888-.02865-.02767-.04183-.02132-.03206-.0275-.04167-.02116-.03182-.02735-.04118-.02034-.03068-.0293-.04394-.01579-.02352-.06119-.09147-.01482-.02222-.0319-.04728-.01709-.02547-.03125-.04647-.01644-.02433-.03238-.04794-.016-.0236-.033-.04874-.00878-.0131-.07129-.10474-.01237-.01807-.02946-.04329-.02067-.03019-.02979-.04346-.01888-.02767-.03011-.04378-.01888-.02743-.0319-.0463-.01107-.016-.07845-.1136-.00325-.00464-.03207-.04631-.0192-.02758-.0293-.04216-.02051-.02954-.029-.04142-.02214-.03166-.02929-.04207-.01449-.02059-.07373-.105-.00683-.00961-.03077-.0437-.02034-.02872-.0306-.04346-.01937-.02718-.03076-.04346-.01937-.02742-.03157-.04444-.02035-.02856-.05127-.07178-.0249-.03475-.0293-.04093-.02246-.03133-.02995-.04175-.01985-.02759-.03109-.04313-.021-.02914-.03011-.04191-.02018-.02783-.06234-.086-.01562-.02148-.02914-.04-.02278-.03109-.03011-.04142-.02133-.029-.02962-.04069-.02262-.03085-.02979-.04061-.022-.02978c-.03564-.04858-.0721-.09806-.10807-.14649l-.02149-.02921-.02994-.04045-.0223-.03-.02946-.03947-.02377-.03206-.02945-.03955-.02-.02677-.10987-.14673-.02344-.031-.02978-.03971-.02295-.03036-.02978-.03955-.02279-.03019-.0306-.04028-.02458-.03239-.0275-.03622-.03662-.04817-.04053-.05331-.02637-.03442-.02751-.036-.02571-.03361-.02816-.03671-.02653-.0345-.02783-.03613-.02539-.03312-.02832-.03671-.04785-.06185-.02507-.03247-.03157-.04077-.02637-.03393-.028-.036-.02685-.03451-.02686-.0345-.02864-.03663-.02621-.03352-.02767-.03532-.0236-.02995-.05859-.07471-.02262-.02881-.02914-.03678-.02588-.03272-.02783-.0354-.02881-.03621-.02653-.03353-.02653-.03328-.02946-.03719-.02376-.02979-.055-.069-.02621-.0328-.03092-.03841-.02344-.02946-.03141-.03906-.02328-.029-.03271-.04053-.02116-.0262-.033-.0411-.01937-.02376-.06852-.08456-.01709-.02116-.03516-.04313-.01937-.02376-.03434-.04215-.02165-.02653-.034-.04167-.01856-.02263-.03711-.04516-.00944-.01156-.08431-.10254-.00993-.01212-.03906-.0472-.016-.01921-.03646-.04411-.01969-.02384-.03581-.043-.0192-.02319-.03565-.04273-.01709-.02051-.07568-.09057-.01367-.01636-.034-.04061-.02262-.02694-.03174-.03767-.02572-.03052-.03223-.03841-.02115-.02507-.036-.0424-.01416-.01668-.08106-.09562-.01139-.01351-.03483-.04094-.02214-.02587-.03369-.03947-.02311-.027-.034-.0398-.02295-.02677-.03336-.039-.022-.02556-.07845-.091-.00814-.00952-.03808-.044-.01839-.02116-.03614-.04183-.02213-.02555-.03483-.04-.02116-.02433-.03613-.04158-.02051-.02352-.06429-.07349-.0249-.02848-.03109-.03532-.02735-.03117-.03092-.03516-.02653-.03027-.03288-.03711-.0249-.02832-.03271-.03695-.023-.02588-.123-.13859-.0236-.02644-.03272-.03663-.027-.03011-.03191-.03556-.02539-.02848-.03385-.03768-.02393-.02653-.124-.13762-.02213-.02433-.03549-.03922-.023-.02531-.03564-.03915-.02409-.02653-.03353-.03678-.02588-.02832-.1276-.13932-.0179-.01937-.03728-.04069-.02278-.02458-.0363-.03947-.02165-.02335-.03727-.04037-.02051-.02205c-.04427-.04777-.08919-.096-.13362-.14372l-.01742-.01864-.03776-.04052-.022-.02344-.03776-.04037-.02083-.02229-.03809-.04053-.01986-.021c-.04573-.04874-.08935-.09489-.13525-.14339l-.01758-.01864-.03711-.03906-.02425-.02547-.03646-.03849-.02116-.02222-.03971-.04159-.01839-.01936-.04151-.0433-.00016-.00024-.0957-.09986-.01742-.01814-.03971-.04118-.02-.02083-.03988-.04135-.021-.02172-.03776-.0389-.02279-.02369-.03922-.04028-.00342-.00358-.104-.10677-.0052-.00545-.04183-.04273-.02067-.02124-.03858-.03939-.02132-.02172-.03923-.04-.022-.02222-.03939-.04-.01253-.01277-.09-.091-.01253-.01261-.04036-.04085-.021-.02108-.04085-.0411-.01937-.01953-.04036-.04045-.01937-.01945q-.09937-.09936-.1989-.19832l-.022-.02181-.03971-.03922-.0197-.01962-.04166-.04118-.02035-.01993-.04134-.04078-.01335-.01326c-.05013-.04924-.09716-.09546-.14746-.14453l-.01709-.01668-.04231-.04135-.02068-.02018-.03873-.03776-.02539-.02474-.03809-.03686-.02018-.01962c-.04557-.04419-.09245-.08943-.13818-.13354l-.0236-.02279-.03825-.03678-.0236-.02254-.03923-.03768-.02376-.02279-.03939-.03768-.01921-.01831-.09619-.0918-.00374-.00349-.03874-.03671-.02555-.02433-.03776-.03573-.02555-.02425-.03679-.03475-.02751-.026-.03678-.03466-.02653-.02491-.06966-.06551-.02572-.024-.033-.03092-.03239-.03035-.0345-.03215-.02735-.02547-.03857-.036-.02458-.02271-.03922-.03654-.02328-.0214-.14062-.13013-.02149-.01977-.04069-.03744-.02376-.02165-.03874-.03556-.026-.02392-.03987-.03638-.0197-.018c-.048-.04394-.09651-.08805-.14469-.13183l-.022-.01986-.03988-.03613-.02425-.022-.03939-.03557-.02686-.02417-.03792-.03418-.02653-.02384-.03825-.03443-.02832-.02547-.068-.06079-.02848-.02547-.03874-.03467-.02588-.023-.0389-.03459-.02588-.02311-.04053-.036-.02229-.01969-.04249-.0376-.00553-.0048-.08984-.07935-.03076-.0271-.03565-.03133-.02881-.02531-.03792-.0332-.02913-.02555-.03646-.0319-.02914-.02531-.03743-.0328-.02116-.01831-.08171-.071-.02262-.01969-.0402-.03475-.02718-.02344-.0363-.03141-.03141-.0271-.03662-.03157-.02832-.02426-.03793-.03271-.02343-.01994-.07813-.067-.02588-.02206-.04118-.03507-.02376-.02027-.0415-.03532-.02556-.02172-.0415-.03524-.02295-.01945-.043-.0363-.01872-.01579-.08561-.07226-.02278-.019-.04086-.03435-.02571-.02164-.03972-.03329-.02783-.02327-.04053-.03386-.02457-.02042-.042-.03508-.01986-.01644-.08594-.07145-.0223-.01847-.04443-.0367-.02051-.01693-.04492-.03711-.02311-.019-.04362-.036-.02181-.01791-.04476-.03678-.01758-.01432-.1001-.08187-.00944-.00773-.04394-.03581-.02491-.02026-.03955-.03215-.02929-.02376-.03988-.03231-.0262-.02124-.04183-.03385-.022-.01766-.08089-.06511-.02767-.0223-.03678-.02954-.03158-.02522-.03645-.0293-.03418-.02718-.03451-.02759-.03564-.0284-.03288-.02613-.04655-.037-.02246-.01791-.06592-.05224-.03337-.02621-.03548-.02807-.0358-.02816-.03256-.02572-.0389-.03052-.03011-.02368-.03776-.02962-.03434-.02677-.05111-.04-.04948-.03866-.033-.02563-.03483-.0271-.03776-.02922-.0332-.02571-.03613-.02808-.03321-.02571-.03694-.02841-.033-.02547-.08236-.06339-.01823-.014-.03857-.02946-.03256-.0249-.03531-.027-.03516-.02686-.03695-.02815-.03239-.02458-.03825-.029-.02913-.02214-.08431-.0638-.02116-.016-.03939-.02971-.02978-.02246-.04134-.03117-.02881-.02164-.04134-.031-.02816-.021-.04134-.03109-.0306-.02279-.14307-.10644-.0319-.02377-.0376-.02783-.034-.02514-.0376-.02776-.034-.02506-.03629-.02677-.03646-.02678-.03548-.02612-.0669-.049-.0319-.02328-.0376-.0275-.03857-.02808-.03385-.02466-.0363-.02645-.0363-.02628-.03531-.02564-.03744-.0271-.03516-.02539-.03548-.02563-.07145-.05135-.02995-.02157-.03792-.02726-.03548-.02539-.03744-.02686-.03369-.024-.03792-.027-.03272-.02336-.041-.02921-.03467-.02458-.06136-.04354-.04134-.02922-.03532-.025-.03809-.02694-.03483-.02449-.03776-.02653-.03483-.02442-.04069-.02856-.03255-.02287-.04883-.0341-.05159-.036-.03988-.02775-.03662-.02547-.03565-.02474-.03922-.0271-.03353-.02335-.03825-.02637-.03483-.024-.03874-.02669-.04508-.031-.0516-.03548-.04264-.02921-.03776-.0258-.0363-.02482-.03694-.02523-.03613-.02458-.03695-.02506-.03858-.02621-.03515-.02384-.0363-.02458-.06836-.04622-.03727-.02515-.03271-.022-.04232-.02848-.03434-.02295-.03907-.02629-.035-.02336-.0389-.026-.03613-.02409-.04785-.0319-.03776-.025-.05632-.03752-.03727-.02465-.03711-.0245-.03727-.02458-.03695-.02441-.03678-.02417-.03972-.026-.03466-.02279-.04623-.03027-.03922-.02572-.05827-.038-.03614-.02352-.03808-.02482-.03825-.02482-.03646-.02369-.03694-.02392-.03939-.02547-.03532-.02279-.0472-.03044-.02686-.01725-.07015-.045-.0376-.02409-.03759-.02409-.03728-.02384-.03824-.02434-.03581-.02286-.04183-.02662-.03369-.0214-.04476-.0284-.03044-.01921-.07145-.04516-.02962-.01864-.04606-.029-.03467-.02181-.03955-.02482-.03662-.02295-.03939-.02466-.03695-.023-.04345-.0271-.03077-.01912-.07177-.0446-.03093-.0192-.04606-.02849-.0319-.01969-.04427-.02726-.03288-.02027-.04525-.02783-.03157-.01945-.04736-.02905-.02914-.01774-.07226-.04419-.03288-.02-.042-.02556-.03972-.02408-.03613-.0219-.0389-.0236-.03743-.02262-.03923-.02368-.04118-.02482-.0332-.02-.07227-.0433-.03222-.01936-.04525-.027-.03451-.02059-.0415-.02474-.03564-.02132-.04232-.02507-.03581-.02132-.03988-.0236-.03678-.02173-.07292-.043-.02376-.01391-.05322-.03142-.03353-.01969-.04216-.02466-.03662-.0214-.04052-.02368-.03793-.02214-.041-.02384-.03451-.0201-.0695-.04029-.03287-.019-.04867-.02824-.03581-.02067-.03939-.0227-.0389-.0223-.04052-.02328-.03711-.02124-.04134-.02368-.03548-.02026-.065-.037-.03352-.01912-.05323-.0302-.033-.01863-.04443-.02523-.03418-.01929-.04541-.02563-.03353-.0188-.05062-.02848-.02571-.01441-.071-.03979-.02539-.01416-.05924-.03313-.03028-.01676-.04752-.02645-.03272-.01815-.04785-.02661-.03174-.01749-.04736-.02621-.03174-.0175-.06071-.03336-.03434-.0188-.05876-.03231-.033-.018-.04476-.0245-.03694-.0201-.04-.02181-.0402-.02189-.0407-.022-.0358-.01945-.0542-.0293-.04053-.02181-.06006-.03239-.03076-.01652-.0472-.02531-.034-.01823-.04834-.0258-.03108-.01652-.04916-.0262-.03108-.01652-.057-.03027-.03206-.017-.06609-.03483-.033-.0175-.04687-.02474-.03369-.01758-.04639-.02441-.03385-.01774-.05013-.02621-.02849-.01489-.05892-.0306-.02213-.01164-.07666-.03979-.02995-.01538-.05-.02588-.03287-.01693-.04834-.0249-.03288-.017-.04688-.02392-.03385-.01742-.05843-.02987-.02035-.01041-.07959-.04053-.02278-.01156-.05681-.0288-.0306-.01555-.05-.02523-.03272-.01643-.05078-.02556-.02881-.01457-.05892-.02962-.02262-.01131-.07829-.03914-.02832-.01408-.05078-.02523-.03467-.01733-.048-.02369-.03337-.0166-.047-.02319-.03466-.01709-.05078-.02507-.02963-.01456-.07747-.038-.02767-.01351-.054-.02636-.03108-.01514-.04948-.02409-.03483-.01693-.04672-.02262-.03385-.01644-.04981-.024-.03287-.01578-.077-.037-.028-.01343-.05241-.02515-.03451-.01652-.047-.02238-.03727-.01774-.04248-.02018-.03841-.01831-.04932-.02335-.03092-.01457-.07992-.03768-.01839-.00871-.06217-.02913-.03174-.0149-.04948-.02319-.035-.01627-.04981-.0232-.02995-.014-.06005-.02791-.02263-.01042-.08235-.03808-.00912-.00423-.07194-.03313-.02669-.0122-.05794-.02661-.02686-.01221-.055-.02523-.03011-.01367-.05518-.02507-.02816-.01285-.0791-.03581-.02571-.01164-.057-.02571-.03076-.01384-.05225-.02344-.03369-.01513-.05-.02238-.03174-.01416-.05452-.02434-.02946-.0131-.0804-.03564-.01563-.007-.06624-.02922-.03093-.01367-.05306-.02335-.03239-.01425-.049-.0214-.03564-.01562-.05208-.02279-.02995-.013-.08171-.03548-.00732-.00318-.07438-.03222-.03239-.014-.04948-.02132-.03744-.01612-.04687-.0201-.03532-.01513-.04883-.02092-.03564-.01513-.05811-.02483-.04655-.01969-.0555-.0236-.03727-.01571-.04834-.02034-.03434-.01457-.049-.02059-.03564-.015-.05094-.02124-.03223-.01351-.06462-.02694-.026-.01082-.07357-.03052-.0306-.01261-.05371-.02222-.03336-.01375L280.3,196.7745l-.03158-.01294-.05436-.0223-.03158-.01294-.06754-.02751-.01514-.00618-.08252-.03353-.02767-.01115-.05729-.02311-.03141-.0127-.05257-.02116-.03321-.01334-.05517-.02206-.02881-.01155-.07341-.02922-.01025-.00415-.08382-.03328-.02865-.01132-.0542-.0214-.03678-.01448-.04932-.01937-.03336-.01319-.05469-.0214-.03076-.012-.06983-.02726-.01334-.00521-.085-.033-.02116-.00814-.06592-.02555-.02425-.00928-.06038-.02328-.02881-.01106-.05974-.02287-.0262-.00993-.06738-.0258-.0184-.00691-.08479-.03223-.02084-.00781-.064-.02417-.03028-.0114-.05647-.02124-.02914-.0109-.05843-.02189-.02913-.01083-.06722-.02506-.01726-.00643-.085-.03149-.022-.00814-.06494-.02393-.02783-.01017-.05632-.02067-.03353-.01229-.0555-.02026-.02946-.01075-.07129-.026-.01285-.00463-.08789-.03182-.01351-.00481-.07211-.026-.02734-.00984-.0599-.02149-.02767-.00984-.06054-.02165-.02767-.00985-.0682-.02417-.01709-.0061-.08724-.03076-.01367-.00481-.07373-.02587-.02425-.00847-.06185-.02164-.029-.0101-.05908-.02059-.029-.01009-.06412-.02221-.022-.00757-.08707-.03-.00993-.00342-.07666-.0262-.02588-.00887-.0612-.02084-.02864-.00976-.05925-.0201-.03011-.01018-.06282-.02124-.023-.00773-.08724-.02929-.00863-.00285-.07926-.02653-.0236-.00782-.06218-.02067-.0306-.01017-.05908-.01953-.02832-.00936-.06771-.02221-.01855-.00611-.0892-.02921-.00162-.00049-.085-.02767-.02653-.00863-.06071-.01969-.02995-.00969-.05892-.019-.03044-.00976-.06347-.02035-.02279-.00724c-.05843-.01872-.119-.03792-.17757-.05648l-.01921-.006-.06624-.02092-.03076-.00968-.05925-.01855-.02864-.009-.062-.01937-.0267-.0083q-.08812-.02746-.1761-.05452l-.021-.00635-.06836-.021-.02409-.00741-.06494-.01986-.027-.00813-.06754-.02051-.01986-.006-.18034-.05429-.01432-.00423-.07292-.02181-.02571-.00765-.06674-.01977-.02181-.00643-.07438-.022-.01448-.00424-.1823-.0533-.01464-.00431-.0739-.02141-.02376-.00683-.06673-.01921-.02523-.00724-.068-.01953-.02116-.006-.08594-.0245-.00325-.001-.09294-.02628-.008-.0022-.08089-.02279-.02132-.006-.06917-.01928-.02377-.00668-.06852-.019-.02165-.006c-.06136-.017-.12093-.03345-.18245-.0503l-.00749-.002-.08333-.02279-.01676-.00455-.06316-.01718a21.24038,21.24038,0,0,0-8.34016-.56347,21.116,21.116,0,0,0-7.85385-1.65641C256.39095,192.0009,256.19629,192,256,192Z" style="fill:#b244f1"/><path d="M437.77083,381.4375a21.33407,21.33407,0,0,1-18.41666-32.0625c10.25-17.61458,7.82291-38.41667,3.97916-52.76042-12.59375-46.96875-56.63541-96.88541-114.96875-130.29166-87.01041-49.84375-187.84375-51.59375-215.71875-3.69792a21.33205,21.33205,0,0,1-36.875-21.45833c40.61459-69.76042,163.42709-75.08334,273.80209-11.86459,67.83333,38.84375,119.55208,98.71875,134.96875,156.27084,8.52083,31.79166,5.64583,61.28125-8.3125,85.26041A21.31168,21.31168,0,0,1,437.77083,381.4375Z" style="fill:#33527d"/><circle cx="234.66667" cy="234.66667" r="21.33333" style="fill:#d7a5ff"/></g></svg>